<?xml version="1.0" encoding="UTF-8"?><svg id="Layer_2" xmlns="http://www.w3.org/2000/svg" viewBox="0 0 1080 1080"><defs><style>.cls-1{fill:#fff;}.cls-2{fill:#ea9136;}.cls-3{fill:#0f5d2f;}.cls-4{fill:#8fc13e;}.cls-5{fill:#e87084;stroke:#f5a7ba;stroke-miterlimit:10;stroke-width:3px;}.cls-6{fill:none;}</style></defs><path class="cls-3" d="m377.8,586.32c-2.85,11.76-13.9,20.82-26.42,23.15-10.04,1.87-19.62.09-29.15-2.56-11.67-3.25-23.27-5.72-35.96,1.25,1.62-7.85,5.73-12.14,11-15.47,9.18-5.8,19.25-6.42,29.61-4.44,6.31,1.21,12.54,2.83,18.83,4.15,10.05,2.1,19.57.92,28.32-4.83.85-.56,1.99-.68,3.76-1.26Z"/><path class="cls-3" d="m311.46,646.41c-.82-2.98-2.29-6.35-6.28-6.35-3.55,0-5.24,2.51-5.24,5.05,0,3.27,2.19,4.86,6.06,6.73,4.03,1.97,8.22,4.16,8.22,9.27s-4.25,8.95-10.73,8.95c-1.97,0-3.55-.35-4.76-.76-1.21-.38-1.87-.76-2.35-.98-.32-.92-1.02-5.14-1.3-7.39l1.43-.41c.79,2.95,3.11,7.81,7.97,7.81,3.46,0,5.49-2.13,5.49-5.46s-2.54-4.95-6.16-6.86c-3.3-1.65-7.84-3.97-7.84-9.08,0-4.63,3.75-8.47,9.93-8.47,2.25,0,4.38.54,6.16,1.11.19,1.65.41,3.55.83,6.6l-1.43.25Z"/><path class="cls-3" d="m387.21,661.8c-.32,1.75-1.24,6.03-1.65,7.52h-23.3v-1.33c4.29-.32,4.7-.76,4.7-4.57v-18.19c0-4.25-.41-4.38-4.09-4.7v-1.4h21.52c.06,1.21.25,4.29.45,6.89l-1.46.19c-.44-1.94-.95-3.02-1.55-4.03-.7-1.02-2-1.33-5.27-1.33h-3.52c-1.56,0-1.65.13-1.65,1.52v10.41h4.35c4.25,0,4.57-.38,5.17-3.52h1.43v9.11h-1.43c-.67-3.4-1.02-3.65-5.17-3.65h-4.35v8.54c0,2.19.25,3.24,1.14,3.81.92.54,2.7.54,4.86.54,3.46,0,4.89-.32,5.97-1.52.83-.98,1.71-2.6,2.41-4.48l1.46.19Z"/><path class="cls-3" d="m465.24,661.36c-.63,2.22-1.94,5.87-2.76,7.36-1.4.32-5.59,1.33-9.11,1.33-12.25,0-17.71-8.09-17.71-15.43,0-9.78,7.9-16.19,18.92-16.19,4.06,0,7.49,1.11,8.82,1.33.38,2.63.73,4.63,1.02,7.27l-1.43.32c-1.3-5.14-4.47-7.17-9.65-7.17-8.09,0-12.41,6.54-12.41,13.46,0,8.76,5.36,14.6,12.82,14.6,4.92,0,7.62-2.63,10.12-7.43l1.37.54Z"/><path class="cls-3" d="m541.88,669.74c-.57,0-1.11-.03-1.68-.09-3.84-.19-5.81-1.21-8-4.25-1.62-2.25-3.17-5.08-4.6-7.3-.86-1.33-1.68-1.9-4.13-1.9h-1.33v7.24c0,3.9.44,4.25,4.25,4.57v1.33h-12.85v-1.33c3.84-.32,4.28-.67,4.28-4.57v-18.41c0-3.97-.41-4.22-4.09-4.48v-1.4h12.16c3.59,0,5.9.41,7.71,1.62,1.94,1.21,3.14,3.27,3.14,6.09,0,4.03-2.6,6.44-6,7.87.83,1.52,2.76,4.57,4.19,6.7,1.71,2.44,2.73,3.74,3.84,4.89,1.21,1.37,2.25,1.87,3.33,2.13l-.22,1.3Zm-17.62-15.11c2.38,0,3.97-.38,5.17-1.33,1.81-1.4,2.54-3.21,2.54-5.71,0-4.98-3.27-6.82-6.79-6.82-1.43,0-2.19.19-2.54.44-.32.25-.51.79-.51,2v11.43h2.13Z"/><path class="cls-3" d="m613.56,661.8c-.32,1.75-1.24,6.03-1.65,7.52h-23.3v-1.33c4.29-.32,4.7-.76,4.7-4.57v-18.19c0-4.25-.41-4.38-4.09-4.7v-1.4h21.52c.06,1.21.25,4.29.45,6.89l-1.46.19c-.44-1.94-.95-3.02-1.55-4.03-.7-1.02-2-1.33-5.27-1.33h-3.52c-1.56,0-1.65.13-1.65,1.52v10.41h4.35c4.25,0,4.57-.38,5.17-3.52h1.43v9.11h-1.43c-.67-3.4-1.02-3.65-5.17-3.65h-4.35v8.54c0,2.19.25,3.24,1.14,3.81.92.54,2.7.54,4.86.54,3.46,0,4.89-.32,5.97-1.52.83-.98,1.71-2.6,2.41-4.48l1.46.19Z"/><path class="cls-3" d="m687.05,646.63c-.51-2.32-1.02-3.55-1.62-4.35-.79-1.08-1.62-1.43-5.24-1.43h-3.24v22.63c0,3.68.41,4.22,4.92,4.51v1.33h-14.06v-1.33c4.35-.29,4.76-.79,4.76-4.51v-22.63h-2.76c-4.13,0-5.11.44-5.74,1.43-.6.79-1.02,2.16-1.62,4.35h-1.43c.22-3.01.44-6.09.54-8.66h1.02c.7,1.17,1.3,1.17,2.7,1.17h19.23c1.3,0,1.75-.29,2.47-1.17h1.02c0,2.13.25,5.71.48,8.51l-1.43.16Z"/><path class="cls-3" d="m754.01,646.41c-.83-2.98-2.29-6.35-6.29-6.35-3.55,0-5.24,2.51-5.24,5.05,0,3.27,2.19,4.86,6.06,6.73,4.03,1.97,8.22,4.16,8.22,9.27s-4.25,8.95-10.73,8.95c-1.97,0-3.55-.35-4.76-.76-1.21-.38-1.87-.76-2.35-.98-.32-.92-1.02-5.14-1.3-7.39l1.43-.41c.79,2.95,3.11,7.81,7.97,7.81,3.46,0,5.49-2.13,5.49-5.46s-2.54-4.95-6.16-6.86c-3.3-1.65-7.84-3.97-7.84-9.08,0-4.63,3.74-8.47,9.93-8.47,2.25,0,4.38.54,6.16,1.11.19,1.65.41,3.55.83,6.6l-1.43.25Z"/><path class="cls-3" d="m697.42,474.18c11.13,0,22.83-.14,34.52.05,8.31.13,16.76-.14,24.88,1.27,17.04,2.97,27.24,13.65,29.02,26.94,2.95,22.05-3.65,34.73-20.92,42.54-1.18.53-2.29,1.21-4.13,2.2,4.43,8.3,8.35,16.65,13.17,24.44,5.95,9.63,11.94,19.41,19.28,27.94,4.48,5.21,10.79,10.73,17.06,14.02,8.29,4.34,17.01,7.43,27.11,6.58.19-.02.38,0,.57.06,1.69.49,2.15,2.72.9,3.96-.72.71-2.93,1.66-3.77,1.88-12.52,3.23-23.61,3.17-36.06-.88-19.45-6.34-32.76-19.7-42.31-37.24-5.61-10.3-10.95-20.75-16.37-31.16-2.77-5.32-8.64-7.86-14.14-5.5-1.28.55-2.61,2.91-2.56,4.38.59,15.28,1.51,34.25,2.13,49.53.05,1.31-1.41,3.83-2.23,3.85-8.48.29-16.97.18-25.06.18,2.11-43.95,3.6-91.03-1.09-135.05Zm26.16,38.14s-.04,0-.06,0c0,4.55.03,9.1,0,13.65-.1,12.36.21,12.95,12.76,11.7,9.94-.99,19.91-3.14,23.73-14.19,3.14-9.09,4.51-18.58-2.33-26.82-8.17-9.84-19.63-9.48-30.88-8.69-1.18.08-2.96,3.21-3.06,5.01-.37,6.42-.15,12.88-.15,19.33Z"/><path class="cls-3" d="m255.52,509.57c-1-2.11-2.03-4.2-3-6.33-6.23-13.74-24.73-20.46-38.19-13.86-10.62,5.21-12.51,18.42-3.15,25.66,4.86,3.76,10.78,6.21,16.38,8.92,8.17,3.95,16.71,7.2,24.7,11.48,13.93,7.46,20.24,19.58,19.17,35.25-1.1,16.12-9.45,27.71-24.41,33.3-24.01,8.98-47.16,7.07-68.65-7.93-3.74-2.61-4.42-5.32-2.64-9.58,2.48-5.92,4.06-12.21,6.3-18.24.64-1.73,2.25-3.11,3.42-4.65,1.05,1.63,2.44,3.13,3.09,4.91,6.4,17.54,23.49,26.88,41.89,22.72,7.65-1.73,13.17-6.07,14.8-13.95,1.65-8-1.04-14.92-7.95-19.23-5.73-3.58-12.19-5.99-18.28-9-7.79-3.85-16.02-7.05-23.21-11.82-23.18-15.4-20.87-49,4.39-60.68,21.23-9.81,42.54-6.21,63.26,2.77,1.1.48,2.6,2.45,2.36,3.28-2.58,8.99-5.47,17.89-8.27,26.82-.67.05-1.35.11-2.02.16Z"/><path class="cls-3" d="m905.2,609.69h-30.5c-3.24-11.92-6.43-27.77-9.38-39.2-1.31-5.07-4.16-6.42-10.88-5.36-7.82,1.23-15.8,1.44-23.6.05-7.48-1.33-10.38.14-11.82,5.5-2.34,8.68-5.02,17.27-7.57,25.91-11.28-4.97-15.36-13.51-11.52-24.59,9.35-26.98,18.91-53.89,28.11-80.92,1.37-4.01,1.67-8.51,1.73-12.79.04-3.28,1.12-4.57,4.21-4.44,4.17.17,8.38.04,12.49.63,7.95,1.14,13.24,5.24,15.78,13.4,5.45,17.51,11.47,34.84,17.32,52.22,5.37,15.97,10.64,31.98,16.36,47.83,1.63,4.52,8.33,19.83,9.27,21.78Zm-46.64-59.43c-5.07-16.16-8.78-31.67-14.64-46.39-.69-1.73-3.17-1.63-3.73.14-4.79,15.12-9.6,30.28-14.66,46.25h33.03Z"/><path class="cls-3" d="m498.14,510.72c-1.65-2.57-2.74-3.76-3.28-5.16-7.99-20.96-36.21-25.91-51.9-4.55-13.94,18.98-13.15,56.4,1.61,74.59,13.21,16.28,36.84,19.1,54.19,6.43,2.29-1.67,4.45-3.52,6.66-5.28,6.53,5.88,6.93,8.68,1.28,15.11-12.11,13.77-27.86,18.62-45.58,16.96-25.43-2.39-42.62-16.14-50.52-40.27-9.22-28.18-6.99-55.14,12.79-78.64,9.56-11.36,22.58-16.98,37.33-18.3,14.8-1.32,29.1.5,42.63,7.12,3.31,1.62,4.35,3.31,2.96,7.05-2.82,7.6-5.09,15.4-8.19,24.95Z"/><path class="cls-3" d="m617.6,556.28c1.27,35.09-26.45,56.52-58.55,52.6-25.68-3.14-39.12-15.43-44.31-37.41-8.64-36.59,16.92-65.25,51.93-63.89,18.28.71,33.6,6.24,44.05,22.3,5.66,8.7,7.15,18.16,6.88,26.4Zm-53.17-34.8c-9.49-.29-17.13,4.63-21.68,13.96-7.95,16.32-7.37,32.29,1.95,48.2,9.18,15.68,34.41,16.71,43.75-1.74,7.46-14.74,7.66-29.75,1.11-44.42-4.36-9.77-12.18-16.39-25.13-16.01Z"/><path class="cls-5" d="m327.49,517.55s-20.5-29.42,7.5-45.09c0,0,24.17,14.17,10.5,43.84,0,0,19.17-28.5,42.17-6.17,0,0-3.33,27.34-34.34,22.67,0,0,26.34,9.67,15,39.01,0,0-26.34,1.33-32.01-27,0,0-.33,30.67-33.67,26.67,0,0-14.34-21,13.67-38.67,0,0-28,8.33-32.67-23,0,0,21.5-19.92,43.84,7.75Z"/><polygon class="cls-1" points="317.23 513.32 329.81 515.42 332.33 502 335.47 512.07 337.99 501.17 340.5 515 353.08 513.53 346.37 519.4 354.97 519.4 344.7 526.32 350.15 538.48 341.97 532.19 345.32 541.2 335.26 531.98 326.04 541.62 329.18 531.35 320.8 538.9 327.3 525.48 315.56 520.87 322.27 519.4 317.23 513.32"/><path class="cls-2" d="m337.18,517.3l.53,1.08c.25.52.75.87,1.31.96l1.19.17c1.43.21,2,1.97.97,2.98l-.86.84c-.41.4-.6.98-.5,1.55l.2,1.19c.24,1.43-1.25,2.51-2.53,1.84l-1.07-.56c-.51-.27-1.12-.27-1.62,0l-1.07.56c-1.28.67-2.78-.41-2.53-1.84l.2-1.19c.1-.57-.09-1.14-.5-1.55l-.86-.84c-1.04-1.01-.46-2.77.97-2.98l1.19-.17c.57-.08,1.06-.44,1.31-.96l.53-1.08c.64-1.3,2.49-1.3,3.13,0Z"/><polygon class="cls-3" points="316.4 502.21 297.53 486.28 306.36 487 309.17 478.25 316.4 502.21"/><polygon class="cls-3" points="354.3 501.38 362.63 478.13 365.05 486.65 374.22 486.23 354.3 501.38"/><polygon class="cls-3" points="367.33 537.28 391.99 538.73 384.49 543.45 387.47 552.14 367.33 537.28"/><polygon class="cls-3" points="302.89 538.38 281.5 550.73 285.17 542.67 277.9 537.06 302.89 538.38"/><path class="cls-6" d="m665.95,419.11c.55-1.56,1.09-3.13,1.67-4.78-1.44-.1-2.89-.18-4.34-.26.45,1.73.87,3.36,1.29,4.98.71.03.67.03,1.38.06Z"/><path class="cls-6" d="m655.53,433.71c.08.1.22.15.86.58.99-1.49,2.02-2.71,2.67-4.1,2.75-5.89-.6-11.02-2.2-16.36-.89-.02-1.79-.04-2.69-.05-.09.06-.17.12-.2.19-5.14,9.57-4.95,11.41,1.56,19.74Z"/><path class="cls-6" d="m646.3,418.86c.46-1.64.93-3.3,1.43-5.07-1.47.02-2.95.06-4.43.11l1.64,4.99c.7-.02.66-.01,1.36-.03Z"/><path class="cls-6" d="m633.34,422.02c2.61,5.43,4.49,11.2,7.06,16.65,1.45,3.06,3.66,5.75,5.7,8.88,4.12-4.74,4.68-8.18,1.78-12.38-4.54-6.56-9.33-12.94-10.95-20.97-1.46.09-2.92.2-4.39.32-1.46,2.02-.95,3.87.8,7.5Z"/><path class="cls-6" d="m685.75,419.84c-.94,2.73-2.5,5.23-3.65,7.89-1.12,2.6-2.07,5.28-3.47,8.89,9.72-3.45,13.52-9.91,12.46-19.64-.9-.14-1.8-.28-2.7-.41-1.2.55-2.06,1.59-2.64,3.26Z"/><path class="cls-6" d="m734.47,442.08c-3.93,1.53-7.9,2.98-11.86,4.46.09.71.08.61.17,1.32,12.07,1.58,29.73-4.75,34.6-12.24-.96-.4-1.99-.82-3.08-1.25-1.78.12-3.49.72-5.34,1.74-4.55,2.51-9.62,4.07-14.49,5.97Z"/><path class="cls-6" d="m732.11,435.12c6.13.16,10.57-1.66,12.16-4.54-2.31-.82-4.76-1.66-7.35-2.5-.28.09-.51.2-.65.37-1.52,1.91-2.64,4.13-4.17,6.67Z"/><path class="cls-6" d="m698.37,424.36c2.73-2.38,3.76-3.29,5.72-5-2.19-.45-4.43-.89-6.7-1.3-.31,1.84-.38,3.8-.65,5.67l1.63.63Z"/><path class="cls-6" d="m696.87,432.54c-.68.29-1.14,1.06-1.73,1.58-4.51,4.02-9.02,8.05-13.55,12.05-3.06,2.71-6.47,5.1-9.12,8.15-2.12,2.44-3.33,5.67-5.25,9.07,5.6-3.11,10.5-5.42,14.92-8.44,3.3-2.25,6.52-5.02,8.8-8.25,3.42-4.86,7.21-9.03,12.33-12.12,4.07-2.45,7.94-5.25,11.78-8.05,1.15-.84,1.91-2.22,2.96-3.48-1.08-.45-2.06-.86-3.02-1.26-1.56-.38-3.13-.76-4.73-1.13-3.24,5.22-7.58,9.34-13.37,11.86Z"/><path class="cls-6" d="m707.14,441.27c-4.12,2.57-7.62,5.94-9.66,11.73,3.07-1.15,5.57-1.67,7.61-2.93,6.29-3.9,12.42-8.07,18.57-12.2.73-.49,1.33-1.31,1.75-2.1,1.65-3.08,3.28-6.18,5.13-9.7-1.71-.52-3.48-1.03-5.29-1.54-4.7,7.12-10.96,12.29-18.11,16.75Z"/><path class="cls-6" d="m658.64,444.02c-2.66,4.45-3.04,8.85-1.59,13.87,3.9-4.9,7.54-9.25,10.89-13.82,1.28-1.75,1.94-3.98,2.79-6.03,2.12-5.08,3.82-10.37,6.37-15.21,2.15-4.09,3-5.59,1.82-7.49-1.64-.18-3.29-.36-4.96-.51-.62,2.15-1.23,4.22-2.23,6.09-4.15,7.82-8.55,15.5-13.1,23.1Z"/><path class="cls-6" d="m588.2,447.98c-3.33-3.6-7.66-4.51-11.79-6-5.17-1.85-10.24-4.04-15.15-6.5-.42-.21-.81-.39-1.19-.56-1.65.86-3.29,1.74-4.94,2.66,9.26,8.05,20.29,11.12,33.07,10.39Z"/><path class="cls-6" d="m631.75,436.26c-.46-1.87-.65-3.58-1.3-5.09-1.72-4-3.45-8.01-5.55-11.81-.73-1.32-2.08-2.3-3.6-3.6-.42.06-.85.12-1.27.18-1.37,10.88,2.64,17.57,11.72,20.32Z"/><path class="cls-6" d="m577.73,435.67c.42-.54.43-.56.85-1.1-1.31-2.13-2.61-4.27-3.92-6.4-2.52,1.03-5.03,2.15-7.54,3.32,2.92,3.22,7.07,3.02,10.6,4.18Z"/><path class="cls-6" d="m614.48,423.33c-1.43-3.96-1.41-3.91-2.21-6.13-1.93.35-3.86.74-5.79,1.16,2.08,1.96,4.17,3.93,6.25,5.89l1.75-.92Z"/><path class="cls-6" d="m587.41,438.02c5.38,3.69,10.71,7.47,16.26,10.89,2.76,1.7,5.95,2.7,8.95,4.02-1.91-6.97-6.71-10.65-11.97-13.76-5.82-3.45-10.65-7.95-14.03-13.72-.31-.52-.62-.98-.96-1.38-1.76.59-3.52,1.22-5.28,1.87,1.81,3.48,3.56,6.84,5.34,10.19.34.63,1.1,1.48,1.69,1.89Z"/><path class="cls-6" d="m606.2,433.59c5.91,3.58,10.68,7.97,14.25,14,1.64,2.78,4.62,5.02,7.43,6.81,4.87,3.11,10.09,5.67,15.38,8.59-1.13-4.79-3.93-8.72-7.65-11.97-6.92-6.04-14.76-10.79-21.24-17.68-4.34-4.61-10.73-7.57-13.99-13.58-.25.06-.49.12-.74.18-2.32,1.16-4.41,2.22-7.48,3.76,5.08,3.61,9.37,7.06,14.04,9.88Z"/><path class="cls-4" d="m600.29,419.62c-.22.11-.44.22-.65.33.25-.06.49-.12.74-.18-.03-.05-.06-.1-.09-.15Z"/><path class="cls-4" d="m744.62,429.83c-.09.26-.22.51-.35.75,3.75,1.33,7.11,2.61,10.03,3.78,1.15-.08,2.33.03,3.6.37-.15.3-.33.59-.52.89,4.45,1.85,7.57,3.29,9.13,4.04,1.63.09,3.33.58,5.19,1.49,1.3.64,4.44.44,4.67-.16,1.26-3.28,4.27-2.66,6.56-3.5,4.38-1.6,4.6-1.97,2.44-5.94q4.18-3.12-2.64-6.53.17-5.06-5.49-7.09c.19-.71.35-1.46.6-2.17,1.4-4.13,1.39-3.96-3.18-4.39-1.01-.09-2.68-1.81-2.66-2.76.06-3.71-1.53-4.84-4.92-4.07-3.05.69-4.76.22-3.57-3.54.74-2.35.32-4.14-2.84-4.32-.84-.05-1.83-1.37-2.32-2.33-.55-1.07-.6-2.38-.86-3.59-.32.3-.63.61-.95.91-1.23-.61-2.43-1.29-3.69-1.82-.8-.34-1.85-.87-2.51-.61-2.98,1.15-3.76-.36-4.16-2.89-.45-2.85-1.59-4.51-5.14-3.69-1.32.3-3.22-1.3-4.65-2.32-.75-.53-1.05-1.69-1.55-2.56-1.64.62-2.94,1.11-4.78,1.8-.45-5.81-3.46-7.91-8.88-6.83-1.1.22-2.49-.44-3.06-1.41-2.24-3.86-4.61-6.99-9.87-6-1.97.37-4.27-.71-6.14-.17-4.9,1.42-6.39,1.19-9.17-3.1-1.43-2.2-3.07-2.75-5.33-1.36-1.1.68-2.23,1.32-3.3,1.95q-3.24-3.54-8.54-2.15-3.84-4.97-8.47-1.41c-7.94-2.67-15.87-3.34-23.61.09q-4.61-3.81-8.84,1.45c-3.23-1.95-6.14-1.62-8.09,2.05-.74-.39-1.22-.61-1.66-.89-4.55-2.84-4.86-2.71-7.77,1.64-.71,1.06-2.18,2.35-3.23,2.29-4.65-.24-9.25-2.28-13.96-.25-.09.04-.29-.14-.37-.1-1.56.8-4.15,1.32-4.48,2.48-1.29,4.5-4.18,5.36-8.19,4.82-2.75-.37-4.68.46-5.15,3.52-.16,1.01-.63,1.98-1.04,3.23-1.57-.62-2.99-1.19-4.58-1.82-1.92,3.25-3.64,6.68-8.46,4.96-.51-.18-2.34,1.69-2.64,2.85-.74,2.85-1.29,5.32-5.15,3.7-.45-.19-1.22.29-1.81.54-1.46.62-2.9,1.3-4.35,1.95-.59-.34-.95-.02-.98.33-.25,2.7-.29,5.46-4.35,4.98-.39-.05-1.33,1.78-1.42,2.8-.13,1.38.31,2.81.57,4.68-1.35.06-2.5.27-3.61.13-3.59-.46-5.71.39-5.28,4.65.07.66-1.91,2.24-2.81,2.15-4.3-.43-4.14,1.55-2.86,4.49.29.67.31,1.46.56,2.69-5.22-.27-6.72,2.22-4.83,6.75-2.46.87-4.5,1.58-7.29,2.56,1.85,1.77,3.18,3.04,4.12,3.94-.64,1.2-1.74,2.32-1.61,3.28.11.81,1.54,1.73,2.57,2.08,2.2.74,5.84.46,6.53,1.8,2.28,4.45,5.11,2.77,8.02,1.64,3.13-1.21,5.75-1.42,8.44.17,1.82-1.1,3.64-2.17,5.47-3.2-.71-.62-1.42-1.26-2.11-1.94,2.84-1.78,4.61-1.76,7.05-.72,2.34-1.22,4.7-2.35,7.05-3.45-.38-.42-.74-.89-1.07-1.43,2.73-.99,4.77-1.74,6.8-2.48.29-.31.59-.62.88-.93.31.5.62,1.01.93,1.51,1.9-.78,3.81-1.51,5.72-2.22-.74-1.42-1.48-2.86-2.25-4.32,2.92-.45,7.37,1.92,9.43,4.45,4.66-1.57,7.42-4.94,12.08-6.12.22-.11.43-.22.65-.33.03.05.06.1.09.15,2.04-.51,4.07-.98,6.1-1.41-.39-.36-.77-.73-1.16-1.09.17-.61.2-.73.37-1.34,1.89-.4,3.79-.81,5.68-1.21.4,1.09.68,1.87.9,2.48,2.59-.48,5.18-.89,7.76-1.26.05-.39.09-.78.15-1.18.38.36.76.69,1.12,1,3.77-.52,7.52-.94,11.25-1.25.75-1.04,2.02-2.11,3.92-3.5.1,1.09.26,2.15.47,3.18,2.13-.13,4.25-.23,6.36-.3l-.91-2.78c2.08-.21,3.6-.36,6.27-.63-.33,1.17-.63,2.25-.93,3.29,2.16-.03,4.31-.03,6.45,0,.67-.39,1.76-5.22,1.78-5.15.04.15.86,5.05.9,5.19,2.15.05,4.29.13,6.41.24-.37-1.43-.76-2.93-1.18-4.58,2.64.79,4.34,1.31,6.53,1.97-.35,1-.68,1.94-1,2.87,2.13.14,4.25.31,6.34.5.33-1.15.66-2.31,1.05-3.48,2.01,1.79,3.26,2.95,3.91,3.99,3.21.36,6.36.77,9.46,1.23.74-.34,1.6-.5,2.6-.51.04.31.07.61.1.92,2.13.34,4.23.7,6.3,1.07.2-1.16.49-2.26.99-3.27.38-.76,4.73.46,7.26.78.16.67.32,1.34.48,2.01-.8.7-1.46,1.27-2.03,1.78,2.09.43,4.14.87,6.15,1.33.14-.22.29-.44.43-.67,1.46.61,2.85,1.19,4.31,1.79,3.57.88,7,1.79,10.28,2.71.17-.26.36-.5.52-.77,1.11-1.75,4.58-2.02,7.68-3.25-1.05,2-2,3.83-2.91,5.56,2.21.67,4.33,1.34,6.38,2.01.7-.21,1.72-.19,2.42-.04"/><path class="cls-3" d="m722.73,447.84l-.15-1.31c3.95-1.48,7.92-2.93,11.86-4.46,4.87-1.9,9.95-3.47,14.49-5.97,1.85-1.02,3.56-1.61,5.34-1.74-2.93-1.17-5.93-3.2-9.68-4.53-1.59,2.87-6.38,5.45-12.51,5.29,1.54-2.54,2.66-4.76,4.17-6.67.14-.17.37-.29.65-.37-2.05-.67-2.39-4.87-4.6-5.54-1.84,3.53-5.26,10.16-6.91,13.23-.42.79-1.02,1.61-1.75,2.1-6.15,4.13-12.28,8.29-18.57,12.2-2.04,1.26-4.54,1.78-7.61,2.93,2.04-5.78,5.54-9.16,9.66-11.73,7.15-4.46,13.41-9.63,18.11-16.75-3.28-.93-6.71-1.84-10.28-2.71.96.4,1.94.81,3.02,1.26-1.05,1.26-1.8,2.64-2.96,3.48-3.84,2.8-7.71,5.6-11.78,8.05-5.12,3.08-8.91,7.26-12.33,12.12-2.28,3.23-5.5,6-8.8,8.25-4.42,3.01-9.32,5.32-14.92,8.44,1.91-3.4,3.13-6.63,5.25-9.07,2.65-3.05,6.06-5.45,9.12-8.15,4.53-4,9.04-8.03,13.55-12.05.59-.52,1.05-1.29,1.73-1.58,5.79-2.52,10.56-7.3,13.8-12.52-2.01-.46-2.46-2.01-4.54-2.44-1.95,1.71-5.03,4.39-7.75,6.78l-1.63-.63c.27-1.86,1.32-7.09,1.64-8.93-2.07-.38-5.26,1.61-7.39,1.28,1.06,9.73-2.64,17.1-12.36,20.56,1.4-3.61,2.34-6.29,3.47-8.89,1.15-2.66,2.71-5.17,3.65-7.89.57-1.67,1.44-2.71,2.64-3.26-3.1-.46-6.25-.87-9.46-1.23,1.18,1.9.33,3.4-1.82,7.49-2.55,4.85-4.25,10.14-6.37,15.21-.85,2.05-1.51,4.28-2.79,6.03-3.35,4.57-6.99,8.92-10.89,13.82-1.46-5.03-1.07-9.42,1.59-13.87,4.54-7.6,8.95-15.28,13.1-23.1.99-1.87,2.66-7.42,3.28-9.57-2.09-.19-4.25.25-6.38.11-.58,1.65-2.13,6.09-2.68,7.65l-1.38-.06c-.42-1.62-2.01-7.82-2.46-9.55-2.12-.11-3.99-.82-6.15-.87.38,8.14,5.85,15.67,3.1,21.55-.65,1.39-1.68,2.6-2.67,4.1-.64-.43-.78-.48-.86-.58-6.51-8.33-6.33-9.83-1.19-19.4.04-.07,1.19-4.03,1.21-4.15-2.14-.03-4.73.3-6.9.33-.5,1.78-1.89,6.73-2.35,8.37l-1.36.03-2.56-7.77c-2.11.07-3.78-.24-5.92-.1.56,8.51,6.88,17.59,11.42,24.15,2.9,4.2,2.34,7.64-1.78,12.38-2.04-3.13-4.25-5.82-5.7-8.88-2.58-5.44-4.45-11.22-7.06-16.65-1.75-3.63-2.26-5.49-.8-7.5-3.72.31-8.56-.26-12.33.26,1.43,1.4,3.95,3.27,4.68,4.59,2.11,3.79,3.84,7.81,5.55,11.81.65,1.51.84,3.22,1.3,5.09-9.08-2.75-12.9-10.6-11.53-21.49-2.58.37-6.21-.51-8.81-.04.8,2.22,1.64,4.64,3.07,8.6l-1.75.92c-2.08-1.96-5.29-5.01-7.37-6.97-2.03.44-2.94,1.98-4.98,2.49,3.26,6.01,9.66,8.97,13.99,13.58,6.48,6.89,14.31,11.63,21.24,17.68,3.72,3.25,6.52,7.18,7.65,11.97-5.29-2.91-10.5-5.48-15.38-8.59-2.81-1.79-5.79-4.03-7.43-6.81-3.56-6.04-8.34-10.42-14.25-14-4.67-2.83-8.87-6.21-13.94-9.82-1.69.78-.24.43-4.91,2,.19.39.25.45.56.97,3.37,5.78,6.91,8.98,12.74,12.43,5.26,3.11,10.06,6.79,11.97,13.76-3-1.32-6.19-2.32-8.95-4.02-5.55-3.43-10.87-7.21-16.26-10.89-.59-.41-1.36-1.26-1.69-1.89-1.78-3.35-4.71-9.09-6.52-12.57-1.91.71-3.52,2.33-5.43,3.11,1.31,2.13,3.5,5.77,4.8,7.9l-.85,1.1c-3.53-1.16-8.72-2.37-11.63-5.6-2.36,1.1-3.68,3.65-6.02,4.86.38.16.77.35,1.19.56,4.91,2.46,9.98,4.65,15.15,6.5,4.14,1.48,8.46,2.4,11.79,6-12.78.73-25.88-4.27-35.14-12.32-1.83,1.02-2.85,3.4-4.67,4.5.71.42,2.7,1.58,3.43,2.27,8.38,7.9,18.61,11.71,30.17,12.64,6.93.56,13.91,1.84,20.61,3.7,6.97,1.94,13.5,5.44,20.46,7.44,9.11,2.62,14.34,8.23,17.59,15.86,1.7,3.99,2.66,8.25,3.1,12.56l.48,4.74c.61,6.04.88,12.1.8,18.17-.24,17.14-.14,34.3-1.18,51.39-.84,13.7,1.29,28.22-7.71,40.62h39.62c-5.44-5.16-6.64-11.2-7.03-17.53-.31-5.03-.68-10.06-.84-15.1-.63-20.07-1.19-40.14-1.83-60.22-.22-6.99.14-13.98,1.14-20.9.4-2.76.72-4.24.91-4.98.19-.73.36-1.46.53-2.19,2.49-10.61,8.78-19.24,19.77-22.55,5.43-1.63,10.92-3.32,16.03-5.73,5.87-2.77,11.84-4.49,18.29-4.77,12.97-.56,25.5-2.91,35.29-12.18,2.86-2.71,5.54-3.93,8.49-3.78-1.56-.75-4.16-3.08-8.61-4.92-4.87,7.49-23.07,14.7-35.14,13.12Z"/><path class="cls-4" d="m354.34,690.25h-6.94v-2.27h16.57v2.27h-6.94v18.72h-2.69v-18.72Z"/><path class="cls-4" d="m379.53,693.42h2.21l.26,3.68h.06c1.63-2.53,4.06-4.06,6.94-4.06,1.15,0,2.11.16,3.07.64l-.61,2.27c-1.09-.35-1.66-.51-2.88-.51-2.34,0-4.54,1.18-6.4,4.45v9.09h-2.66v-15.55Z"/><path class="cls-4" d="m406.25,704.94c0-3.49,3.26-5.18,11.3-5.82-.1-2.11-1.12-3.9-4.13-3.9-2.02,0-4,.96-5.44,1.86l-1.06-1.79c1.6-1.02,4.22-2.24,6.94-2.24,4.26,0,6.34,2.53,6.34,6.4v9.54h-2.21l-.22-2.11h-.1c-1.7,1.34-3.94,2.5-6.11,2.5-2.91,0-5.31-1.63-5.31-4.42Zm11.3-.03v-4.03c-6.66.51-8.67,1.82-8.67,3.87,0,1.76,1.6,2.46,3.39,2.46s3.49-.83,5.28-2.3Z"/><path class="cls-4" d="m434.09,693.42h2.72l3.58,8.8c.61,1.57,1.18,3.1,1.73,4.61h.13c.54-1.5,1.06-3.04,1.7-4.61l3.58-8.8h2.56l-6.46,15.55h-2.98l-6.56-15.55Z"/><path class="cls-4" d="m463.46,701.16c0-5.06,3.78-8.13,7.94-8.13,4.48,0,7.1,2.91,7.1,7.3,0,.61-.06,1.18-.13,1.6h-13.15v-2.05h11.58l-.67.74c0-3.68-1.82-5.5-4.67-5.5s-5.38,2.18-5.38,6.05,2.62,6.08,6.08,6.08c1.86,0,3.33-.58,4.74-1.47l.96,1.73c-1.54,1.02-3.52,1.86-6.02,1.86-4.67,0-8.38-3.01-8.38-8.19Z"/><path class="cls-4" d="m497.96,703.76v-15.42h-5.5v-2.14h8.16v17.76c0,2.24,1.22,3.2,3.07,3.2.9,0,1.86-.22,2.91-.7l.67,1.98c-1.44.61-2.46.93-4.16.93-3.33,0-5.15-1.92-5.15-5.6Z"/><path class="cls-4" d="m550.25,704.94c0-3.49,3.26-5.18,11.3-5.82-.1-2.11-1.12-3.9-4.13-3.9-2.02,0-4,.96-5.44,1.86l-1.06-1.79c1.6-1.02,4.22-2.24,6.94-2.24,4.26,0,6.34,2.53,6.34,6.4v9.54h-2.21l-.22-2.11h-.1c-1.7,1.34-3.94,2.5-6.11,2.5-2.91,0-5.31-1.63-5.31-4.42Zm11.3-.03v-4.03c-6.66.51-8.67,1.82-8.67,3.87,0,1.76,1.6,2.46,3.39,2.46s3.49-.83,5.28-2.3Z"/><path class="cls-4" d="m578.79,711.82c0-1.25.9-2.5,2.56-3.46v-.13c-.83-.45-1.6-1.25-1.6-2.56,0-.99.67-2.11,1.86-2.91v-.13c-1.06-.8-1.92-2.18-1.92-4.03,0-3.39,2.82-5.57,6.11-5.57.9,0,1.63.13,2.3.38h6.43v2.14h-4.03c.7.74,1.31,1.89,1.31,3.14,0,3.33-2.66,5.34-6.02,5.34-.8,0-1.76-.19-2.62-.58-.77.48-1.22,1.06-1.22,1.79,0,1.22,1.18,1.79,3.23,1.79h3.49c4,0,5.92,1.02,5.92,3.65,0,2.91-3.36,5.44-8.64,5.44-4.54,0-7.17-1.57-7.17-4.32Zm13.21-.7c0-1.47-1.18-1.89-3.55-1.89h-3.04c-.9,0-1.7-.06-2.37-.26-1.47.8-1.98,1.7-1.98,2.59,0,1.63,1.76,2.66,5.09,2.66,3.62,0,5.86-1.5,5.86-3.1Zm-2.62-12.51c0-2.18-1.6-3.65-3.58-3.65s-3.58,1.47-3.58,3.65,1.63,3.68,3.58,3.68,3.58-1.44,3.58-3.68Z"/><path class="cls-4" d="m607.46,701.16c0-5.06,3.78-8.13,7.94-8.13,4.48,0,7.1,2.91,7.1,7.3,0,.61-.06,1.18-.13,1.6h-13.15v-2.05h11.58l-.67.74c0-3.68-1.82-5.5-4.67-5.5s-5.38,2.18-5.38,6.05,2.62,6.08,6.08,6.08c1.86,0,3.33-.58,4.74-1.47l.96,1.73c-1.54,1.02-3.52,1.86-6.02,1.86-4.67,0-8.38-3.01-8.38-8.19Z"/><path class="cls-4" d="m637.06,693.42h2.18l.22,2.62h.13c1.63-1.7,3.42-3.01,5.86-3.01,3.68,0,5.38,2.18,5.38,6.27v9.66h-2.66v-9.31c0-2.94-1.02-4.32-3.55-4.32-1.86,0-3.1.93-4.9,2.78v10.85h-2.66v-15.55Z"/><path class="cls-4" d="m665.45,701.23c0-5.21,3.97-8.19,8.67-8.19,2.53,0,4.38,1.02,5.66,2.27l-1.31,1.7c-1.28-1.09-2.62-1.76-4.26-1.76-3.58,0-6.05,2.4-6.05,5.98s2.43,5.92,5.98,5.92c1.92,0,3.52-.86,4.8-1.95l1.18,1.73c-1.73,1.54-3.87,2.43-6.18,2.43-4.86,0-8.51-2.98-8.51-8.13Z"/><path class="cls-4" d="m693.83,715.34l.54-2.11c.42.13.93.22,1.41.22,2.18,0,3.49-1.38,4.26-3.3l.45-1.15-7.23-15.58h2.69l3.78,8.58c.61,1.38,1.28,3.01,1.92,4.51h.13c.54-1.47,1.15-3.1,1.66-4.51l3.36-8.58h2.56l-6.88,16.83c-1.15,3.07-3.04,5.41-6.59,5.41-.74,0-1.5-.13-2.05-.32Z"/></svg>