<svg width="20" height="20" viewBox="0 0 20 20" fill="none" xmlns="http://www.w3.org/2000/svg">
<g clip-path="url(#clip0_166_842)">
<g clip-path="url(#clip1_166_842)">
<path d="M0.837286 3.26614C0.612648 3.5303 0.387352 3.79381 0.167984 4.05138C-0.262846 3.6166 -0.63834 3.23847 -1 2.87418C-0.083004 1.95586 0.852437 1.01976 1.77602 0.0955198C2.70026 1.02174 3.63505 1.95784 4.55072 2.87549C4.19302 3.2332 3.81489 3.61067 3.40382 4.02174C3.16601 3.75626 2.91041 3.47101 2.59025 3.11462V6.90448C4.31555 5.17655 6.08234 3.40843 7.8386 1.64954C7.37549 1.64954 6.85112 1.61726 6.33333 1.65942C5.88472 1.69565 5.57115 1.54809 5.27866 1.21739C4.92358 0.816205 4.51976 0.457839 4.08235 0.0276674C4.24769 0.0151509 4.33794 0.00263443 4.42885 0.00263443C8.82148 0.00197567 13.2141 -6.17583e-07 17.6067 0.00263443C19.0086 0.00329319 20.0079 0.980237 20.0099 2.37352C20.0171 6.7892 20.0125 11.2042 20.0125 15.6199C20.0125 15.6812 20.0059 15.7431 19.9209 15.863C19.5231 15.4466 19.143 15.0112 18.72 14.6219C18.4453 14.3689 18.3347 14.1054 18.357 13.7339C18.3887 13.2141 18.365 12.691 18.365 12.1746C16.6008 13.9407 14.8544 15.6884 13.112 17.4328H16.9091C16.554 17.143 16.2615 16.9045 15.9743 16.67C16.4453 16.2167 16.8287 15.8478 17.2016 15.4881C18.0837 16.3801 19.0152 17.3215 19.9401 18.2563C19.0441 19.1456 18.1047 20.0784 17.1752 21.0007C16.8261 20.6449 16.4545 20.2668 16.0586 19.8636C16.2813 19.6673 16.5349 19.4433 16.7885 19.2194C16.7727 19.1805 16.7569 19.1416 16.7404 19.1034H16.3775C12.0507 19.1034 7.72398 19.1047 3.39723 19.1028C2.21278 19.1028 1.35903 18.5283 1.03294 17.4835C0.943346 17.1963 0.917655 16.8801 0.916996 16.5764C0.90975 12.2708 0.912385 7.96509 0.912385 3.65942C0.912385 3.54348 0.912385 3.42688 0.912385 3.31094C0.886693 3.29578 0.861001 3.28129 0.83531 3.26614H0.837286ZM2.56258 16.1831C7.40975 11.3353 12.249 6.49473 17.0935 1.64954C16.4032 1.64954 15.6937 1.64361 14.9842 1.65678C14.8933 1.65876 14.7879 1.74177 14.7154 1.81423C10.7167 5.80896 6.72003 9.80632 2.72596 13.8063C2.65415 13.8788 2.57115 13.9842 2.56917 14.0751C2.55599 14.7839 2.56192 15.4928 2.56192 16.1825L2.56258 16.1831ZM18.365 2.95784C13.5296 7.79183 8.69499 12.6258 3.86693 17.4526C4.52569 17.4526 5.22464 17.4585 5.92358 17.4453C6.01449 17.4433 6.11858 17.357 6.19104 17.2839C10.1963 13.2826 14.1996 9.27866 18.1996 5.27273C18.2721 5.20026 18.3557 5.09486 18.357 5.00395C18.3702 4.30567 18.3643 3.60672 18.3643 2.95784H18.365ZM18.365 7.58762C15.0758 10.8742 11.7833 14.164 8.49144 17.4526C9.15876 17.4526 9.85705 17.4585 10.556 17.4453C10.6462 17.4433 10.749 17.3531 10.8221 17.28C13.2846 14.8221 15.7444 12.3617 18.2016 9.89855C18.2734 9.82609 18.3557 9.72003 18.3577 9.62846C18.3709 8.92951 18.365 8.23057 18.365 7.58696V7.58762ZM2.56258 11.5231C5.861 8.22595 9.14624 4.94137 12.4387 1.64954C11.7793 1.64954 11.1028 1.64361 10.4262 1.65613C10.334 1.6581 10.2266 1.73518 10.1548 1.80632C7.67589 4.27997 5.20026 6.75626 2.72727 9.23518C2.65547 9.30764 2.5718 9.41238 2.56983 9.50395C2.55665 10.1818 2.56258 10.8597 2.56258 11.5231Z" fill="#999999"/>
</g>
</g>
<defs>
<clipPath id="clip0_166_842">
<rect width="20" height="20" fill="white"/>
</clipPath>
<clipPath id="clip1_166_842">
<rect width="21.0145" height="21" fill="white" transform="translate(-1)"/>
</clipPath>
</defs>
</svg>
